<?xml version="1.0" encoding="UTF-8"?>
<svg id="_レイヤー_1" data-name="レイヤー 1" xmlns="http://www.w3.org/2000/svg" viewBox="0 0 20 20">
  <defs>
    <style>
      .cls-1, .cls-2 {
        stroke-width: 0px;
      }

      .cls-2 {
        fill: #fff;
      }
    </style>
  </defs>
  <circle class="cls-2" cx="10" cy="10" r="10"/>
  <g>
    <g>
      <circle class="cls-2" cx="10" cy="10" r="6.69"/>
      <path class="cls-1" d="m10,4.31c3.14,0,5.69,2.55,5.69,5.69s-2.55,5.69-5.69,5.69-5.69-2.55-5.69-5.69,2.55-5.69,5.69-5.69m0-2c-4.25,0-7.69,3.44-7.69,7.69s3.44,7.69,7.69,7.69,7.69-3.44,7.69-7.69-3.44-7.69-7.69-7.69h0Z"/>
    </g>
    <g>
      <circle class="cls-1" cx="10" cy="10" r="2.08"/>
      <path class="cls-1" d="m10,8.92c.59,0,1.08.48,1.08,1.08s-.48,1.08-1.08,1.08-1.08-.48-1.08-1.08.48-1.08,1.08-1.08m0-2c-1.7,0-3.08,1.38-3.08,3.08s1.38,3.08,3.08,3.08,3.08-1.38,3.08-3.08-1.38-3.08-3.08-3.08h0Z"/>
    </g>
  </g>
</svg>