<?xml version="1.0" encoding="UTF-8"?>
<svg id="_レイヤー_1" data-name="レイヤー 1" xmlns="http://www.w3.org/2000/svg" viewBox="0 0 20 20">
  <defs>
    <style>
      .cls-1 {
        fill: #5f6368;
        stroke-width: 0px;
      }
    </style>
  </defs>
  <path class="cls-1" d="m17.6,19l-6.3-6.3c-.5.4-1.08.72-1.73.95s-1.34.35-2.08.35c-1.82,0-3.35-.63-4.61-1.89s-1.89-2.8-1.89-4.61.63-3.35,1.89-4.61S5.68,1,7.5,1s3.35.63,4.61,1.89,1.89,2.8,1.89,4.61c0,.73-.12,1.43-.35,2.08s-.55,1.23-.95,1.73l6.3,6.3-1.4,1.4Zm-10.1-7c1.25,0,2.31-.44,3.19-1.31s1.31-1.94,1.31-3.19-.44-2.31-1.31-3.19-1.94-1.31-3.19-1.31-2.31.44-3.19,1.31-1.31,1.94-1.31,3.19.44,2.31,1.31,3.19,1.94,1.31,3.19,1.31Z"/>
</svg>