<svg fill="none" height="36" viewBox="0 0 36 36" width="36" xmlns="http://www.w3.org/2000/svg"><g fill="#fff"><path d="m30.6039 24.2384c-1.4093 0-2.6647-.2614-3.766-.784v-1.764c1.1293.588 2.3847.882 3.766.882.6627 0 1.148-.126 1.456-.378s.4667-.588.476-1.008c0-.4107-.1447-.7187-.434-.924-.28-.2054-.728-.392-1.344-.56l-.952-.266c-.5413-.1494-1.0127-.3267-1.414-.532-.4013-.2147-.7373-.5227-1.008-.924-.2707-.4107-.406-.938-.406-1.582 0-1.0454.3127-1.8387.938-2.38.6253-.5507 1.5073-.826 2.646-.826.6813 0 1.2787.0653 1.792.196.5227.1213 1.0547.308 1.596.56v1.708c-1.0173-.532-2.1467-.798-3.388-.798-1.1013 0-1.652.462-1.652 1.386.0093.4106.1353.714.378.91.252.196.6813.3733 1.288.532l.966.266c.588.1586 1.0873.35 1.498.574s.7513.546 1.022.966c.2707.4106.406.9473.406 1.61-.0093.9706-.3593 1.736-1.05 2.296-.6813.56-1.6193.84-2.814.84z"/><path d="m21.8432 13.3877c2.5013 0 3.752 1.12 3.752 3.36 0 1.0827-.3173 1.9087-.952 2.478-.6253.56-1.5587.84-2.8.84h-2.072v3.934h-1.946v-10.612zm1.778 3.318c0-.5787-.1493-.9987-.448-1.26-.2893-.2613-.7327-.392-1.33-.392h-2.072v3.36h2.072c.6067 0 1.0547-.14 1.344-.42s.434-.7093.434-1.288z"/><path d="m13.2725 13.3877h1.946v10.612h-1.946z"/><path d="m5.72887 13.3877c1.83866 0 3.22466.4527 4.158 1.358.94263.896 1.41403 2.2167 1.41403 3.962 0 1.7547-.4667 3.0753-1.40003 3.962-.93334.8867-2.324 1.33-4.172 1.33h-3.64v-10.612zm3.612 5.278c0-1.2413-.30334-2.1513-.91-2.73-.59734-.588-1.498-.882-2.702-.882h-1.694v7.28h1.694c1.22266 0 2.128-.2893 2.716-.868.59733-.588.896-1.5213.896-2.8z"/></g></svg>